<svg width="68" height="68" viewBox="0 0 68 68" fill="none" xmlns="http://www.w3.org/2000/svg">
<g clip-path="url(#clip0)">
<circle cx="34" cy="34" r="34" fill="white"/>
<path d="M52.2097 29.4737V21.4211H49.4805V16.0526H46.7511V13.3684H44.0219V10.6842H38.5634V8H30.3756V10.6842H24.917V13.3684H22.1878V16.0526H19.4585V21.4211H16.7293V29.4737H14V45.5789H16.7293V50.9474H19.4585V53.6316H22.1878V56.3158H27.6463V59H41.2926V56.3158H46.7511V53.6316H49.4805V50.9474H52.2097V45.5789H54.9389V29.4737H52.2097Z" fill="#0055FF"/>
<path d="M45.1901 26.747V20.7883H43.1285V16.8157H41.0669V14.8295H39.0051V12.8432H34.8819V9.17969C33.2325 9.17969 32.8201 9.17969 31.1708 9.17969V11.2763H28.0783V12.8432H25.8105V14.8295H22.9241V16.8157H20.4501V20.7883V22.3883H18.3884V26.747V30.565H16.3268V38.6646H18.3884V42.637H20.4501V44.6233H22.5118V46.6096H26.6351V48.5958H36.9435V46.6096H41.0669V44.6233H43.1285V42.637H45.1901V38.6646H47.2519V26.747H45.1901Z" fill="#6B9DFF"/>
<path d="M28.4633 24.9036V23.6456H29.288V21.9683H29.9615V19.9158H29.3567L29.288 18.8234H28.7519V18.1944H28.051V17.5654H26.1955V18.1944H25.1234V19.342H23.9139V19.9158H22.9243V21.0635H22.5119V22.7849H22.0996V26.2278H22.7044V27.3753H23.3091V27.9492H23.9139V28.5229H24.5461V29.0968H25.7281V28.5229H26.1955V27.9492H26.814V27.4195L27.46 27.3753V26.2278H28.051V24.9036H28.4633Z" fill="white"/>
</g>
<defs>
<clipPath id="clip0">
<rect width="68" height="68" fill="white"/>
</clipPath>
</defs>
</svg>
